# Blender v2.77 (sub 0) OBJ File: ''
# www.blender.org
mtllib DemoModelImportTarget.mtl
o Cube
v 2.471473 -1.000000 -1.835430
v 2.471473 -1.000000 1.835430
v -2.471474 -1.000000 1.835430
v -2.471472 -1.000000 -1.835431
v 0.950288 1.000000 -1.582744
v 0.950287 1.000000 1.582746
v -0.950288 1.000000 1.582744
v -0.950288 1.000000 -1.582745
v 1.271445 -0.500000 -1.205902
v 1.000000 0.000000 -1.000000
v 1.306185 0.500000 -1.177495
v 1.271445 -0.500000 1.205903
v 1.000000 0.000000 1.000000
v 1.306184 0.500000 1.177496
v -1.271446 -0.500000 1.205902
v -1.000000 0.000000 1.000000
v -1.306185 0.500000 1.177495
v -1.271445 -0.500000 -1.205903
v -1.000000 0.000000 -1.000000
v -1.306185 0.500000 -1.177495
vn 0.0000 -1.0000 0.0000
vn 0.0000 1.0000 0.0000
vn 0.8147 0.5799 0.0000
vn -0.0000 -0.6297 0.7769
vn -0.8147 0.5799 -0.0000
vn 0.0000 0.7831 -0.6219
vn 0.0000 -0.6297 -0.7769
vn 0.0000 -0.3345 -0.9424
vn 0.0000 0.3808 -0.9247
vn -0.3846 0.9231 -0.0000
vn -0.8788 0.4771 -0.0000
vn -0.8528 -0.5222 -0.0000
vn -0.0000 0.7831 0.6219
vn -0.0000 0.3808 0.9247
vn -0.0000 -0.3345 0.9424
vn 0.3846 0.9231 0.0000
vn 0.8788 0.4771 0.0000
vn 0.8528 -0.5222 0.0000
usemtl Material
s off
f 1//1 2//1 3//1 4//1
f 5//2 8//2 7//2 6//2
f 11//3 5//3 6//3 14//3
f 14//4 6//4 7//4 17//4
f 17//5 7//5 8//5 20//5
f 9//6 1//6 4//6 18//6
f 5//7 11//7 20//7 8//7
f 11//8 10//8 19//8 20//8
f 10//9 9//9 18//9 19//9
f 3//10 15//10 18//10 4//10
f 15//11 16//11 19//11 18//11
f 16//12 17//12 20//12 19//12
f 2//13 12//13 15//13 3//13
f 12//14 13//14 16//14 15//14
f 13//15 14//15 17//15 16//15
f 1//16 9//16 12//16 2//16
f 9//17 10//17 13//17 12//17
f 10//18 11//18 14//18 13//18
